<?xml version="1.0" ?>
<!-- Uploaded to: SVG Repo, www.svgrepo.com, Generator: SVG Repo Mixer Tools -->
<svg width="800px" height="800px" viewBox="0 0 24 24" version="1.1" xml:space="preserve" xmlns="http://www.w3.org/2000/svg" xmlns:xlink="http://www.w3.org/1999/xlink">
<style type="text/css">
	.st0{opacity:0.2;fill:none;stroke:#000000;stroke-width:5.000000e-02;stroke-miterlimit:10;}
</style>
<g id="grid_system"/>
<g id="_icons">
<path d="M16.5,6.6c0-2.4-2-4.4-4.5-4.4s-4.5,2-4.5,4.4C7.5,9,9.5,11,12,11S16.5,9,16.5,6.6z M9.5,6.6c0-1.3,1.1-2.4,2.5-2.4   s2.5,1.1,2.5,2.4S13.4,9,12,9S9.5,7.9,9.5,6.6z"/>
<path d="M4.6,16.3l-0.5,1.9c-0.3,0.9-0.1,1.9,0.5,2.7C5.2,21.6,6,22,7,22h6.9c0.6,0,1-0.4,1-1s-0.4-1-1-1H7c-0.4,0-0.6-0.2-0.7-0.4   C6,19.4,5.9,19,6,18.7l0.5-1.9C7,15.1,8.4,14,10,14H14c0.8,0,1.6,0.3,2.3,0.8c0.4,0.4,1.1,0.3,1.4-0.1c0.4-0.4,0.3-1.1-0.1-1.4   c-1-0.8-2.3-1.3-3.6-1.3H10C7.5,12,5.3,13.7,4.6,16.3z"/>
<path d="M20.1,16.9c-0.4-0.4-1-0.4-1.4,0L18,17.6l-0.7-0.7c-0.4-0.4-1-0.4-1.4,0s-0.4,1,0,1.4l0.7,0.7l-0.7,0.7   c-0.4,0.4-0.4,1,0,1.4c0.2,0.2,0.5,0.3,0.7,0.3s0.5-0.1,0.7-0.3l0.7-0.7l0.7,0.7c0.2,0.2,0.5,0.3,0.7,0.3s0.5-0.1,0.7-0.3   c0.4-0.4,0.4-1,0-1.4L19.4,19l0.7-0.7C20.5,17.9,20.5,17.3,20.1,16.9z"/>
</g>
</svg>